<svg width="263" height="48" viewBox="0 0 263 48" fill="none" xmlns="http://www.w3.org/2000/svg">
<path d="M75.4091 19C75.0966 18.0436 74.6847 17.1866 74.1733 16.429C73.6714 15.6619 73.0701 15.0085 72.3693 14.4688C71.678 13.929 70.892 13.517 70.0114 13.233C69.1307 12.9489 68.1648 12.8068 67.1136 12.8068C65.3902 12.8068 63.8229 13.2519 62.4119 14.142C61.0009 15.0322 59.8788 16.3438 59.0455 18.0767C58.2121 19.8097 57.7955 21.9356 57.7955 24.4545C57.7955 26.9735 58.2169 29.0994 59.0597 30.8324C59.9025 32.5653 61.0436 33.8769 62.483 34.767C63.9223 35.6572 65.5417 36.1023 67.3409 36.1023C69.0076 36.1023 70.4754 35.7472 71.7443 35.0369C73.0227 34.3172 74.017 33.304 74.7273 31.9972C75.447 30.6809 75.8068 29.1326 75.8068 27.3523L76.8864 27.5795H68.1364V24.4545H79.2159V27.5795C79.2159 29.9754 78.7045 32.0587 77.6818 33.8295C76.6686 35.6004 75.267 36.9735 73.4773 37.9489C71.697 38.9148 69.6515 39.3977 67.3409 39.3977C64.7652 39.3977 62.5019 38.7917 60.5511 37.5795C58.6098 36.3674 57.0947 34.6439 56.0057 32.4091C54.9261 30.1742 54.3864 27.5227 54.3864 24.4545C54.3864 22.1534 54.6941 20.0843 55.3097 18.2472C55.9347 16.4006 56.8153 14.8286 57.9517 13.5312C59.0881 12.2339 60.4328 11.2396 61.9858 10.5483C63.5388 9.85701 65.2481 9.51136 67.1136 9.51136C68.6477 9.51136 70.0777 9.74337 71.4034 10.2074C72.7386 10.6619 73.9271 11.3106 74.9688 12.1534C76.0199 12.9867 76.8958 13.9858 77.5966 15.1506C78.2973 16.3059 78.7803 17.589 79.0455 19H75.4091ZM88.147 25.875V39H84.7947V9.90909H88.147V20.5909H88.4311C88.9425 19.464 89.7095 18.5691 90.7322 17.9062C91.7644 17.2339 93.1375 16.8977 94.8516 16.8977C96.3383 16.8977 97.6404 17.196 98.7578 17.7926C99.8752 18.3797 100.742 19.2841 101.357 20.5057C101.982 21.7178 102.295 23.2614 102.295 25.1364V39H98.9425V25.3636C98.9425 23.6307 98.4927 22.2907 97.593 21.3438C96.7029 20.3873 95.4671 19.9091 93.8857 19.9091C92.7872 19.9091 91.8023 20.1411 90.9311 20.6051C90.0694 21.0691 89.3875 21.7462 88.8857 22.6364C88.3932 23.5265 88.147 24.6061 88.147 25.875ZM117.291 39.4545C115.321 39.4545 113.593 38.9858 112.107 38.0483C110.629 37.1108 109.474 35.7992 108.641 34.1136C107.817 32.428 107.405 30.4583 107.405 28.2045C107.405 25.9318 107.817 23.9479 108.641 22.2528C109.474 20.5578 110.629 19.2415 112.107 18.304C113.593 17.3665 115.321 16.8977 117.291 16.8977C119.261 16.8977 120.984 17.3665 122.462 18.304C123.948 19.2415 125.104 20.5578 125.928 22.2528C126.761 23.9479 127.178 25.9318 127.178 28.2045C127.178 30.4583 126.761 32.428 125.928 34.1136C125.104 35.7992 123.948 37.1108 122.462 38.0483C120.984 38.9858 119.261 39.4545 117.291 39.4545ZM117.291 36.4432C118.787 36.4432 120.018 36.0597 120.984 35.2926C121.95 34.5256 122.665 33.517 123.129 32.267C123.593 31.017 123.825 29.6629 123.825 28.2045C123.825 26.7462 123.593 25.3873 123.129 24.1278C122.665 22.8684 121.95 21.8504 120.984 21.0739C120.018 20.2973 118.787 19.9091 117.291 19.9091C115.795 19.9091 114.564 20.2973 113.598 21.0739C112.632 21.8504 111.917 22.8684 111.453 24.1278C110.989 25.3873 110.757 26.7462 110.757 28.2045C110.757 29.6629 110.989 31.017 111.453 32.267C111.917 33.517 112.632 34.5256 113.598 35.2926C114.564 36.0597 115.795 36.4432 117.291 36.4432ZM147.749 22.0682L144.738 22.9205C144.549 22.4186 144.269 21.9309 143.9 21.4574C143.54 20.9744 143.048 20.5767 142.423 20.2642C141.798 19.9517 140.997 19.7955 140.022 19.7955C138.687 19.7955 137.574 20.1032 136.684 20.7188C135.803 21.3248 135.363 22.0966 135.363 23.0341C135.363 23.8674 135.666 24.5256 136.272 25.0085C136.878 25.4915 137.825 25.8939 139.113 26.2159L142.352 27.0114C144.302 27.4848 145.756 28.2093 146.712 29.1847C147.669 30.1506 148.147 31.3958 148.147 32.9205C148.147 34.1705 147.787 35.2879 147.067 36.2727C146.357 37.2576 145.363 38.0341 144.085 38.6023C142.806 39.1705 141.319 39.4545 139.624 39.4545C137.399 39.4545 135.557 38.9716 134.099 38.0057C132.64 37.0398 131.717 35.6288 131.329 33.7727L134.511 32.9773C134.814 34.1515 135.387 35.0322 136.229 35.6193C137.082 36.2064 138.194 36.5 139.567 36.5C141.13 36.5 142.371 36.1686 143.289 35.5057C144.217 34.8333 144.681 34.0284 144.681 33.0909C144.681 32.3333 144.416 31.6989 143.886 31.1875C143.355 30.6667 142.541 30.2784 141.442 30.0227L137.806 29.1705C135.808 28.697 134.34 27.9631 133.403 26.9688C132.475 25.965 132.011 24.7102 132.011 23.2045C132.011 21.9735 132.356 20.8845 133.048 19.9375C133.748 18.9905 134.7 18.2472 135.903 17.7074C137.115 17.1676 138.488 16.8977 140.022 16.8977C142.181 16.8977 143.876 17.3712 145.107 18.3182C146.348 19.2652 147.228 20.5152 147.749 22.0682ZM162.682 17.1818V20.0227H151.375V17.1818H162.682ZM154.67 11.9545H158.023V32.75C158.023 33.697 158.16 34.4072 158.435 34.8807C158.719 35.3447 159.079 35.6572 159.514 35.8182C159.959 35.9697 160.428 36.0455 160.92 36.0455C161.29 36.0455 161.593 36.0265 161.83 35.9886C162.066 35.9413 162.256 35.9034 162.398 35.875L163.08 38.8864C162.852 38.9716 162.535 39.0568 162.128 39.142C161.721 39.2367 161.205 39.2841 160.58 39.2841C159.633 39.2841 158.705 39.0805 157.795 38.6733C156.896 38.2661 156.148 37.6458 155.551 36.8125C154.964 35.9792 154.67 34.928 154.67 33.6591V11.9545ZM165.221 13.0341V9.90909H187.039V13.0341H177.891V39H174.369V13.0341H165.221ZM195.473 39.5114C194.09 39.5114 192.836 39.2509 191.709 38.7301C190.582 38.1998 189.687 37.4375 189.024 36.4432C188.361 35.4394 188.03 34.2273 188.03 32.8068C188.03 31.5568 188.276 30.5436 188.768 29.767C189.261 28.9811 189.919 28.3655 190.743 27.9205C191.567 27.4754 192.476 27.1439 193.47 26.9261C194.474 26.6989 195.482 26.5189 196.496 26.3864C197.821 26.2159 198.896 26.0881 199.72 26.0028C200.554 25.9081 201.16 25.7519 201.538 25.5341C201.927 25.3163 202.121 24.9375 202.121 24.3977V24.2841C202.121 22.8826 201.737 21.7936 200.97 21.017C200.213 20.2405 199.062 19.8523 197.518 19.8523C195.918 19.8523 194.663 20.2027 193.754 20.9034C192.845 21.6042 192.206 22.3523 191.837 23.1477L188.655 22.0114C189.223 20.6856 189.981 19.6534 190.928 18.9148C191.884 18.1667 192.926 17.6458 194.053 17.3523C195.189 17.0492 196.306 16.8977 197.405 16.8977C198.106 16.8977 198.911 16.983 199.82 17.1534C200.738 17.3144 201.624 17.6506 202.476 18.1619C203.338 18.6733 204.053 19.4451 204.621 20.4773C205.189 21.5095 205.473 22.892 205.473 24.625V39H202.121V36.0455H201.95C201.723 36.5189 201.344 37.0256 200.814 37.5653C200.284 38.1051 199.578 38.5644 198.697 38.9432C197.817 39.322 196.742 39.5114 195.473 39.5114ZM195.984 36.5C197.31 36.5 198.428 36.2396 199.337 35.7188C200.255 35.1979 200.946 34.5256 201.411 33.7017C201.884 32.8778 202.121 32.0114 202.121 31.1023V28.0341C201.979 28.2045 201.666 28.3608 201.183 28.5028C200.71 28.6354 200.161 28.7538 199.536 28.858C198.92 28.9527 198.319 29.0379 197.732 29.1136C197.154 29.1799 196.685 29.2367 196.325 29.2841C195.454 29.3977 194.64 29.5824 193.882 29.8381C193.134 30.0843 192.528 30.4583 192.064 30.9602C191.609 31.4527 191.382 32.125 191.382 32.9773C191.382 34.142 191.813 35.0227 192.675 35.6193C193.546 36.2064 194.649 36.5 195.984 36.5ZM214.944 9.90909V39H211.592V9.90909H214.944ZM224.209 31.0455L224.152 26.8977H224.834L234.379 17.1818H238.527L228.357 27.4659H228.072L224.209 31.0455ZM221.084 39V9.90909H224.436V39H221.084ZM234.947 39L226.425 28.2045L228.811 25.875L239.209 39H234.947Z" fill="white"/>
<path d="M75.4091 19L74.4585 19.3106L74.6838 20H75.4091V19ZM74.1733 16.429L73.3365 16.9765L73.3404 16.9825L73.3444 16.9885L74.1733 16.429ZM72.3693 14.4688L71.7539 15.257L71.7591 15.261L72.3693 14.4688ZM70.0114 13.233L70.3184 12.2812L70.3184 12.2812L70.0114 13.233ZM59.0455 18.0767L59.9467 18.5101L59.0455 18.0767ZM59.0597 30.8324L58.1604 31.2697L59.0597 30.8324ZM62.483 34.767L61.957 35.6175L62.483 34.767ZM71.7443 35.0369L72.2327 35.9095L72.2349 35.9083L71.7443 35.0369ZM74.7273 31.9972L73.8499 31.5174L73.8486 31.5196L74.7273 31.9972ZM75.8068 27.3523L76.0128 26.3737L74.8068 26.1198V27.3523H75.8068ZM76.8864 27.5795V28.5795L77.0924 26.601L76.8864 27.5795ZM68.1364 27.5795H67.1364V28.5795H68.1364V27.5795ZM68.1364 24.4545V23.4545H67.1364V24.4545H68.1364ZM79.2159 24.4545H80.2159V23.4545H79.2159V24.4545ZM77.6818 33.8295L76.8159 33.3294L76.8139 33.3329L77.6818 33.8295ZM73.4773 37.9489L73.9542 38.8278L73.9558 38.8269L73.4773 37.9489ZM60.5511 37.5795L60.0215 38.4278L60.0234 38.4289L60.5511 37.5795ZM56.0057 32.4091L55.1052 32.8441L55.1067 32.8471L56.0057 32.4091ZM55.3097 18.2472L54.3624 17.9266L54.3615 17.9295L55.3097 18.2472ZM57.9517 13.5312L58.7039 14.1901L57.9517 13.5312ZM61.9858 10.5483L61.5791 9.63471L61.9858 10.5483ZM71.4034 10.2074L71.073 11.1513L71.0811 11.154L71.4034 10.2074ZM74.9688 12.1534L74.3397 12.9309L74.3475 12.937L74.9688 12.1534ZM77.5966 15.1506L76.7397 15.6661L76.7416 15.6692L77.5966 15.1506ZM79.0455 19V20H80.2509L80.0283 18.8153L79.0455 19ZM76.3596 18.6894C76.0212 17.6536 75.5704 16.7113 75.0021 15.8695L73.3444 16.9885C73.799 17.6618 74.172 18.4335 74.4585 19.3106L76.3596 18.6894ZM75.0101 15.8815C74.4492 15.0242 73.7722 14.2871 72.9795 13.6765L71.7591 15.261C72.368 15.73 72.8937 16.2997 73.3365 16.9765L75.0101 15.8815ZM72.9848 13.6806C72.196 13.0647 71.3044 12.5993 70.3184 12.2812L69.7044 14.1847C70.4796 14.4348 71.16 14.7932 71.7539 15.2569L72.9848 13.6806ZM70.3184 12.2812C69.326 11.9611 68.2551 11.8068 67.1136 11.8068V13.8068C68.0745 13.8068 68.9353 13.9366 69.7044 14.1847L70.3184 12.2812ZM67.1136 11.8068C65.2079 11.8068 63.4545 12.3019 61.8784 13.2963L62.9455 14.9878C64.1913 14.2019 65.5724 13.8068 67.1136 13.8068V11.8068ZM61.8784 13.2963C60.2855 14.3012 59.0463 15.7675 58.1442 17.6433L59.9467 18.5101C60.7113 16.92 61.7164 15.7632 62.9455 14.9878L61.8784 13.2963ZM58.1442 17.6433C57.229 19.5467 56.7955 21.8302 56.7955 24.4545H58.7955C58.7955 22.041 59.1953 20.0727 59.9467 18.5101L58.1442 17.6433ZM56.7955 24.4545C56.7955 27.0803 57.2342 29.3653 58.1604 31.2697L59.9589 30.395C59.1995 28.8335 58.7955 26.8667 58.7955 24.4545H56.7955ZM58.1604 31.2697C59.0742 33.1488 60.3351 34.6145 61.957 35.6175L63.0089 33.9165C61.752 33.1393 60.7307 31.9819 59.9589 30.395L58.1604 31.2697ZM61.957 35.6175C63.5645 36.6117 65.3681 37.1023 67.3409 37.1023V35.1023C65.7152 35.1023 64.2802 34.7027 63.0089 33.9165L61.957 35.6175ZM67.3409 37.1023C69.1533 37.1023 70.7939 36.7148 72.2327 35.9095L71.2559 34.1643C70.1568 34.7795 68.8619 35.1023 67.3409 35.1023V37.1023ZM72.2349 35.9083C73.6795 35.0951 74.8072 33.9442 75.6059 32.4747L73.8486 31.5196C73.2269 32.6637 72.366 33.5394 71.2538 34.1655L72.2349 35.9083ZM75.6047 32.4769C76.4186 30.9883 76.8068 29.2689 76.8068 27.3523H74.8068C74.8068 28.9962 74.4753 30.3735 73.8499 31.5174L75.6047 32.4769ZM75.6008 28.3308L76.6804 28.5581L77.0924 26.601L76.0128 26.3737L75.6008 28.3308ZM76.8864 26.5795H68.1364V28.5795H76.8864V26.5795ZM69.1364 27.5795V24.4545H67.1364V27.5795H69.1364ZM68.1364 25.4545H79.2159V23.4545H68.1364V25.4545ZM78.2159 24.4545V27.5795H80.2159V24.4545H78.2159ZM78.2159 27.5795C78.2159 29.8302 77.7367 31.7349 76.8159 33.3294L78.5478 34.3297C79.6724 32.3825 80.2159 30.1206 80.2159 27.5795H78.2159ZM76.8139 33.3329C75.8925 34.9431 74.6257 36.1841 72.9987 37.0708L73.9558 38.8269C75.9084 37.7628 77.4446 36.2576 78.5498 34.3262L76.8139 33.3329ZM73.0004 37.0699C71.386 37.9458 69.5087 38.3977 67.3409 38.3977V40.3977C69.7944 40.3977 72.0079 39.8838 73.9542 38.8278L73.0004 37.0699ZM67.3409 38.3977C64.9284 38.3977 62.8525 37.8322 61.0789 36.7302L60.0234 38.4289C62.1513 39.7511 64.6019 40.3977 67.3409 40.3977V38.3977ZM61.0808 36.7313C59.3123 35.6271 57.9188 34.0523 56.9046 31.971L55.1067 32.8471C56.2706 35.2355 57.9074 37.1077 60.0215 38.4278L61.0808 36.7313ZM56.9061 31.9741C55.9057 29.9031 55.3864 27.4069 55.3864 24.4545H53.3864C53.3864 27.6386 53.9465 30.4454 55.1052 32.8441L56.9061 31.9741ZM55.3864 24.4545C55.3864 22.2417 55.6824 20.2824 56.2579 18.5649L54.3615 17.9295C53.7059 19.8861 53.3864 22.0651 53.3864 24.4545H55.3864ZM56.2569 18.5678C56.8452 16.8295 57.6647 15.3766 58.7039 14.1901L57.1995 12.8724C55.9659 14.2806 55.0241 15.9717 54.3624 17.9266L56.2569 18.5678ZM58.7039 14.1901C59.7463 13.0001 60.9737 12.0934 62.3925 11.4619L61.5791 9.63471C59.8919 10.3858 58.4298 11.4677 57.1995 12.8724L58.7039 14.1901ZM62.3925 11.4619C63.8055 10.8329 65.3744 10.5114 67.1136 10.5114V8.51136C65.1218 8.51136 63.2722 8.88111 61.5791 9.63471L62.3925 11.4619ZM67.1136 10.5114C68.5456 10.5114 69.8628 10.7277 71.0731 11.1512L71.7338 9.26353C70.2925 8.75908 68.7499 8.51136 67.1136 8.51136V10.5114ZM71.0811 11.154C72.3109 11.5727 73.3943 12.1659 74.3398 12.9308L75.5977 11.376C74.4598 10.4553 73.1664 9.75119 71.7257 9.26074L71.0811 11.154ZM74.3475 12.937C75.3034 13.6948 76.0999 14.6027 76.7397 15.6661L78.4535 14.635C77.6917 13.3689 76.7364 12.2786 75.59 11.3698L74.3475 12.937ZM76.7416 15.6692C77.3762 16.7155 77.8183 17.8843 78.0627 19.1847L80.0283 18.8153C79.7423 17.2937 79.2185 15.8963 78.4516 14.632L76.7416 15.6692ZM79.0455 18H75.4091V20H79.0455V18ZM88.147 39V40H89.147V39H88.147ZM84.7947 39H83.7947V40H84.7947V39ZM84.7947 9.90909V8.90909H83.7947V9.90909H84.7947ZM88.147 9.90909H89.147V8.90909H88.147V9.90909ZM88.147 20.5909H87.147V21.5909H88.147V20.5909ZM88.4311 20.5909V21.5909H89.0755L89.3417 21.0041L88.4311 20.5909ZM90.7322 17.9062L91.2761 18.7454L91.278 18.7442L90.7322 17.9062ZM98.7578 17.7926L98.2868 18.6748L98.2927 18.6779L98.7578 17.7926ZM101.357 20.5057L100.464 20.9557L100.468 20.964L101.357 20.5057ZM102.295 39V40H103.295V39H102.295ZM98.9425 39H97.9425V40H98.9425V39ZM97.593 21.3438L96.861 22.0251L96.868 22.0325L97.593 21.3438ZM90.9311 20.6051L90.461 19.7225L90.457 19.7246L90.9311 20.6051ZM88.8857 22.6364L88.0145 22.1452L88.0106 22.1523L88.8857 22.6364ZM87.147 25.875V39H89.147V25.875H87.147ZM88.147 38H84.7947V40H88.147V38ZM85.7947 39V9.90909H83.7947V39H85.7947ZM84.7947 10.9091H88.147V8.90909H84.7947V10.9091ZM87.147 9.90909V20.5909H89.147V9.90909H87.147ZM88.147 21.5909H88.4311V19.5909H88.147V21.5909ZM89.3417 21.0041C89.7754 20.0485 90.4165 19.3026 91.2761 18.7454L90.1884 17.0671C89.0026 17.8357 88.1096 18.8795 87.5205 20.1777L89.3417 21.0041ZM91.278 18.7442C92.0959 18.2114 93.2583 17.8977 94.8516 17.8977V15.8977C93.0168 15.8977 91.433 16.2564 90.1864 17.0683L91.278 18.7442ZM94.8516 17.8977C96.2026 17.8977 97.3376 18.168 98.2868 18.6748L99.2288 16.9105C97.9432 16.2241 96.474 15.8977 94.8516 15.8977V17.8977ZM98.2927 18.6779C99.21 19.1598 99.9342 19.9038 100.464 20.9557L102.25 20.0557C101.549 18.6644 100.541 17.5997 99.2229 16.9074L98.2927 18.6779ZM100.468 20.964C100.998 21.9914 101.295 23.3642 101.295 25.1364H103.295C103.295 23.1586 102.966 21.4442 102.246 20.0474L100.468 20.964ZM101.295 25.1364V39H103.295V25.1364H101.295ZM102.295 38H98.9425V40H102.295V38ZM99.9425 39V25.3636H97.9425V39H99.9425ZM99.9425 25.3636C99.9425 23.4604 99.4457 21.842 98.318 20.655L96.868 22.0325C97.5396 22.7394 97.9425 23.801 97.9425 25.3636H99.9425ZM98.3251 20.6625C97.2067 19.4608 95.6817 18.9091 93.8857 18.9091V20.9091C95.2525 20.9091 96.1991 21.3138 96.861 22.025L98.3251 20.6625ZM93.8857 18.9091C92.642 18.9091 91.4927 19.173 90.461 19.7225L91.4012 21.4877C92.112 21.1092 92.9323 20.9091 93.8857 20.9091V18.9091ZM90.457 19.7246C89.4212 20.2824 88.605 21.098 88.0146 22.1452L89.7567 23.1275C90.1701 22.3944 90.7175 21.8559 91.4052 21.4856L90.457 19.7246ZM88.0106 22.1523C87.4183 23.223 87.147 24.478 87.147 25.875H89.147C89.147 24.7341 89.3681 23.8301 89.7607 23.1204L88.0106 22.1523ZM112.107 38.0483L111.571 38.8926L111.573 38.8942L112.107 38.0483ZM108.641 34.1136L107.742 34.5528L107.744 34.5568L108.641 34.1136ZM108.641 22.2528L107.743 21.8116L107.741 21.8157L108.641 22.2528ZM112.107 18.304L111.573 17.4581L111.571 17.4596L112.107 18.304ZM122.462 18.304L121.926 19.1483L121.928 19.1499L122.462 18.304ZM125.928 22.2528L125.028 22.69L125.03 22.694L125.928 22.2528ZM125.928 34.1136L125.031 33.6705L125.029 33.6745L125.928 34.1136ZM122.462 38.0483L121.928 37.2024L121.926 37.204L122.462 38.0483ZM120.984 35.2926L120.362 34.5095L120.984 35.2926ZM123.129 32.267L124.067 32.6151V32.6151L123.129 32.267ZM123.129 24.1278L124.068 23.7821L123.129 24.1278ZM120.984 21.0739L121.611 20.2945L120.984 21.0739ZM113.598 21.0739L112.971 20.2945L113.598 21.0739ZM111.453 24.1278L110.515 23.7821L111.453 24.1278ZM111.453 32.267L110.516 32.6151V32.6151L111.453 32.267ZM113.598 35.2926L114.22 34.5095L113.598 35.2926ZM117.291 38.4545C115.487 38.4545 113.948 38.0274 112.64 37.2024L111.573 38.8942C113.238 39.9442 115.156 40.4545 117.291 40.4545V38.4545ZM112.642 37.204C111.331 36.372 110.296 35.2046 109.537 33.6705L107.744 34.5568C108.652 36.3939 109.927 37.8496 111.571 38.8926L112.642 37.204ZM109.539 33.6745C108.794 32.1505 108.405 30.3364 108.405 28.2045H106.405C106.405 30.5803 106.839 32.7056 107.742 34.5528L109.539 33.6745ZM108.405 28.2045C108.405 26.0525 108.795 24.2236 109.54 22.69L107.741 21.8157C106.839 23.6722 106.405 25.8111 106.405 28.2045H108.405ZM109.538 22.694C110.297 21.1504 111.333 19.9794 112.642 19.1483L111.571 17.4596C109.926 18.5035 108.651 19.9651 107.743 21.8117L109.538 22.694ZM112.64 19.1499C113.948 18.3249 115.487 17.8977 117.291 17.8977V15.8977C115.156 15.8977 113.238 16.4081 111.573 17.4581L112.64 19.1499ZM117.291 17.8977C119.096 17.8977 120.628 18.3249 121.926 19.1483L122.997 17.4596C121.34 16.4081 119.426 15.8977 117.291 15.8977V17.8977ZM121.928 19.1499C123.246 19.9807 124.28 21.15 125.028 22.69L126.827 21.8157C125.928 19.9655 124.651 18.5023 122.995 17.4581L121.928 19.1499ZM125.03 22.694C125.784 24.2267 126.178 26.0541 126.178 28.2045H128.178C128.178 25.8096 127.738 23.6691 126.825 21.8117L125.03 22.694ZM126.178 28.2045C126.178 30.3348 125.784 32.1474 125.031 33.6705L126.824 34.5568C127.738 32.7087 128.178 30.5819 128.178 28.2045H126.178ZM125.029 33.6745C124.281 35.205 123.247 36.3707 121.928 37.2024L122.995 38.8942C124.65 37.8509 125.926 36.3935 126.826 34.5528L125.029 33.6745ZM121.926 37.204C120.628 38.0274 119.096 38.4545 117.291 38.4545V40.4545C119.426 40.4545 121.34 39.9442 122.997 38.8926L121.926 37.204ZM117.291 37.4432C118.964 37.4432 120.428 37.0113 121.606 36.0757L120.362 34.5095C119.609 35.1081 118.611 35.4432 117.291 35.4432V37.4432ZM121.606 36.0757C122.727 35.186 123.545 34.0218 124.067 32.6151L122.192 31.919C121.786 33.0123 121.174 33.8651 120.362 34.5095L121.606 36.0757ZM124.067 32.6151C124.576 31.2437 124.825 29.7705 124.825 28.2045H122.825C122.825 29.5552 122.611 30.7904 122.192 31.919L124.067 32.6151ZM124.825 28.2045C124.825 26.6385 124.576 25.1615 124.068 23.7821L122.191 24.4735C122.611 25.6131 122.825 26.854 122.825 28.2045H124.825ZM124.068 23.7821C123.546 22.3671 122.73 21.194 121.611 20.2945L120.358 21.8532C121.171 22.5068 121.784 23.3696 122.191 24.4735L124.068 23.7821ZM121.611 20.2945C120.433 19.3473 118.966 18.9091 117.291 18.9091V20.9091C118.608 20.9091 119.604 21.2474 120.358 21.8532L121.611 20.2945ZM117.291 18.9091C115.616 18.9091 114.15 19.3473 112.971 20.2945L114.225 21.8532C114.978 21.2474 115.974 20.9091 117.291 20.9091V18.9091ZM112.971 20.2945C111.853 21.194 111.036 22.3671 110.515 23.7821L112.391 24.4735C112.798 23.3696 113.412 22.5068 114.225 21.8532L112.971 20.2945ZM110.515 23.7821C110.007 25.1615 109.757 26.6385 109.757 28.2045H111.757C111.757 26.854 111.972 25.6131 112.391 24.4735L110.515 23.7821ZM109.757 28.2045C109.757 29.7705 110.007 31.2437 110.516 32.6151L112.391 31.919C111.972 30.7904 111.757 29.5552 111.757 28.2045H109.757ZM110.516 32.6151C111.038 34.0218 111.856 35.186 112.976 36.0757L114.22 34.5095C113.408 33.8651 112.796 33.0123 112.391 31.919L110.516 32.6151ZM112.976 36.0757C114.154 37.0113 115.619 37.4432 117.291 37.4432V35.4432C115.971 35.4432 114.974 35.1081 114.22 34.5095L112.976 36.0757ZM147.749 22.0682L148.022 23.0304L149.031 22.7447L148.697 21.7502L147.749 22.0682ZM144.738 22.9205L143.802 23.2735L144.127 24.1328L145.01 23.8827L144.738 22.9205ZM143.9 21.4574L143.098 22.0549L143.105 22.0637L143.111 22.0724L143.9 21.4574ZM142.423 20.2642L142.87 19.3698L142.423 20.2642ZM136.684 20.7188L137.251 21.5425L137.253 21.5413L136.684 20.7188ZM136.272 25.0085L135.649 25.7906L136.272 25.0085ZM139.113 26.2159L138.87 27.1861L138.874 27.187L139.113 26.2159ZM142.352 27.0114L142.113 27.9825L142.116 27.9831L142.352 27.0114ZM146.712 29.1847L145.998 29.8848L146.002 29.8883L146.712 29.1847ZM147.067 36.2727L146.26 35.6827L146.256 35.6878L147.067 36.2727ZM134.099 38.0057L134.651 37.172L134.099 38.0057ZM131.329 33.7727L131.086 32.8026L130.153 33.0359L130.35 33.9775L131.329 33.7727ZM134.511 32.9773L135.479 32.7274L135.231 31.7664L134.268 32.0071L134.511 32.9773ZM136.229 35.6193L135.658 36.4399L135.662 36.4428L136.229 35.6193ZM143.289 35.5057L143.874 36.3166L143.876 36.3155L143.289 35.5057ZM143.886 31.1875L143.185 31.901L143.192 31.9073L143.886 31.1875ZM141.442 30.0227L141.214 30.9963L141.216 30.9967L141.442 30.0227ZM137.806 29.1705L137.576 30.1435L137.578 30.1441L137.806 29.1705ZM133.403 26.9688L132.668 27.6476L132.675 27.6548L133.403 26.9688ZM133.048 19.9375L132.244 19.3426L132.24 19.3479L133.048 19.9375ZM135.903 17.7074L135.496 16.7939L135.493 16.7951L135.903 17.7074ZM145.107 18.3182L144.498 19.1108L144.5 19.1131L145.107 18.3182ZM147.477 21.106L144.466 21.9582L145.01 23.8827L148.022 23.0304L147.477 21.106ZM145.674 22.5674C145.445 21.9608 145.112 21.3859 144.688 20.8424L143.111 22.0724C143.426 22.4758 143.652 22.8763 143.802 23.2735L145.674 22.5674ZM144.702 20.8599C144.235 20.233 143.612 19.741 142.87 19.3698L141.975 21.1586C142.483 21.4124 142.845 21.7159 143.098 22.0549L144.702 20.8599ZM142.87 19.3698C142.062 18.9659 141.095 18.7955 140.022 18.7955V20.7955C140.9 20.7955 141.533 20.9375 141.975 21.1586L142.87 19.3698ZM140.022 18.7955C138.532 18.7955 137.208 19.1406 136.115 19.8962L137.253 21.5413C137.94 21.0659 138.842 20.7955 140.022 20.7955V18.7955ZM136.117 19.895C135.009 20.6572 134.363 21.7173 134.363 23.0341H136.363C136.363 22.4759 136.597 21.9924 137.251 21.5425L136.117 19.895ZM134.363 23.0341C134.363 24.1455 134.785 25.1021 135.649 25.7906L136.895 24.2265C136.547 23.9491 136.363 23.5893 136.363 23.0341H134.363ZM135.649 25.7906C136.42 26.4049 137.529 26.8507 138.87 27.1861L139.355 25.2458C138.121 24.9372 137.336 24.5781 136.895 24.2265L135.649 25.7906ZM138.874 27.187L142.113 27.9825L142.59 26.0402L139.351 25.2448L138.874 27.187ZM142.116 27.9831C143.965 28.432 145.22 29.0915 145.998 29.8848L147.426 28.4845C146.291 27.327 144.64 26.5377 142.587 26.0396L142.116 27.9831ZM146.002 29.8883C146.75 30.6435 147.147 31.6244 147.147 32.9205H149.147C149.147 31.1673 148.588 29.6577 147.423 28.481L146.002 29.8883ZM147.147 32.9205C147.147 33.964 146.851 34.8736 146.26 35.6827L147.875 36.8627C148.723 35.7021 149.147 34.3769 149.147 32.9205H147.147ZM146.256 35.6878C145.665 36.5085 144.82 37.1811 143.678 37.6885L144.491 39.5161C145.906 38.8871 147.05 38.0067 147.879 36.8576L146.256 35.6878ZM143.678 37.6885C142.552 38.1891 141.208 38.4545 139.624 38.4545V40.4545C141.43 40.4545 143.06 40.1518 144.491 39.5161L143.678 37.6885ZM139.624 38.4545C137.542 38.4545 135.906 38.0034 134.651 37.172L133.547 38.8394C135.208 39.9398 137.256 40.4545 139.624 40.4545V38.4545ZM134.651 37.172C133.432 36.3643 132.647 35.1903 132.308 33.568L130.35 33.9775C130.787 36.0673 131.849 37.7152 133.547 38.8394L134.651 37.172ZM131.571 34.7429L134.753 33.9474L134.268 32.0071L131.086 32.8026L131.571 34.7429ZM133.542 33.2271C133.894 34.5889 134.584 35.6921 135.658 36.4398L136.801 34.7988C136.189 34.3723 135.734 33.7141 135.479 32.7274L133.542 33.2271ZM135.662 36.4428C136.728 37.177 138.057 37.5 139.567 37.5V35.5C138.332 35.5 137.435 35.2358 136.797 34.7958L135.662 36.4428ZM139.567 37.5C141.262 37.5 142.732 37.1412 143.874 36.3166L142.704 34.6948C142.009 35.1959 140.998 35.5 139.567 35.5V37.5ZM143.876 36.3155C144.998 35.5021 145.681 34.4215 145.681 33.0909H143.681C143.681 33.6353 143.436 34.1646 142.702 34.6959L143.876 36.3155ZM145.681 33.0909C145.681 32.0705 145.312 31.1734 144.58 30.4677L143.192 31.9073C143.52 32.2243 143.681 32.5962 143.681 33.0909H145.681ZM144.586 30.4741C143.874 29.7743 142.861 29.3261 141.669 29.0488L141.216 30.9967C142.221 31.2307 142.837 31.559 143.185 31.9009L144.586 30.4741ZM141.671 29.0491L138.034 28.1968L137.578 30.1441L141.214 30.9963L141.671 29.0491ZM138.037 28.1974C136.139 27.7478 134.882 27.0802 134.13 26.2827L132.675 27.6548C133.798 28.846 135.477 29.6462 137.576 30.1435L138.037 28.1974ZM134.137 26.2899C133.398 25.4903 133.011 24.4863 133.011 23.2045H131.011C131.011 24.9342 131.552 26.4397 132.668 27.6476L134.137 26.2899ZM133.011 23.2045C133.011 22.1741 133.295 21.294 133.855 20.5271L132.24 19.3479C131.417 20.4749 131.011 21.7728 131.011 23.2045H133.011ZM133.851 20.5323C134.438 19.7391 135.247 19.0978 136.312 18.6197L135.493 16.7951C134.153 17.3966 133.058 18.242 132.244 19.3427L133.851 20.5323ZM136.31 18.6209C137.375 18.1464 138.606 17.8977 140.022 17.8977V15.8977C138.37 15.8977 136.855 16.1889 135.496 16.7939L136.31 18.6209ZM140.022 17.8977C142.045 17.8977 143.498 18.342 144.498 19.1108L145.717 17.5256C144.254 16.4004 142.317 15.8977 140.022 15.8977V17.8977ZM144.5 19.1131C145.574 19.9325 146.341 21.0127 146.801 22.3861L148.697 21.7502C148.116 20.0176 147.122 18.5978 145.714 17.5233L144.5 19.1131ZM162.682 17.1818H163.682V16.1818H162.682V17.1818ZM162.682 20.0227V21.0227H163.682V20.0227H162.682ZM151.375 20.0227H150.375V21.0227H151.375V20.0227ZM151.375 17.1818V16.1818H150.375V17.1818H151.375ZM154.67 11.9545V10.9545H153.67V11.9545H154.67ZM158.023 11.9545H159.023V10.9545H158.023V11.9545ZM158.435 34.8807L157.57 35.3824L157.576 35.3927L157.582 35.4028L158.435 34.8807ZM159.514 35.8182L159.168 36.7562L159.18 36.7607L159.192 36.7648L159.514 35.8182ZM161.83 35.9886L161.988 36.9761L162.007 36.973L162.026 36.9692L161.83 35.9886ZM162.398 35.875L163.373 35.6542L163.158 34.7032L162.202 34.8944L162.398 35.875ZM163.08 38.8864L163.431 39.8227L164.248 39.5164L164.055 38.6655L163.08 38.8864ZM162.128 39.142L161.923 38.1633L161.912 38.1655L161.901 38.168L162.128 39.142ZM157.795 38.6733L157.383 39.5843L157.387 39.5859L157.795 38.6733ZM155.551 36.8125L154.734 37.3885L154.738 37.3946L155.551 36.8125ZM161.682 17.1818V20.0227H163.682V17.1818H161.682ZM162.682 19.0227H151.375V21.0227H162.682V19.0227ZM152.375 20.0227V17.1818H150.375V20.0227H152.375ZM151.375 18.1818H162.682V16.1818H151.375V18.1818ZM154.67 12.9545H158.023V10.9545H154.67V12.9545ZM157.023 11.9545V32.75H159.023V11.9545H157.023ZM157.023 32.75C157.023 33.7609 157.164 34.6822 157.57 35.3824L159.3 34.379C159.157 34.1322 159.023 33.6331 159.023 32.75H157.023ZM157.582 35.4028C157.962 36.0241 158.487 36.5045 159.168 36.7562L159.861 34.8802C159.671 34.8099 159.475 34.6653 159.288 34.3585L157.582 35.4028ZM159.192 36.7648C159.746 36.9533 160.324 37.0455 160.92 37.0455V35.0455C160.532 35.0455 160.173 34.9861 159.836 34.8715L159.192 36.7648ZM160.92 37.0455C161.318 37.0455 161.679 37.0255 161.988 36.9761L161.672 35.0012C161.507 35.0275 161.262 35.0455 160.92 35.0455V37.0455ZM162.026 36.9692C162.262 36.9219 162.452 36.884 162.594 36.8556L162.202 34.8944C162.06 34.9228 161.87 34.9607 161.633 35.0081L162.026 36.9692ZM161.422 36.0958L162.104 39.1072L164.055 38.6655L163.373 35.6542L161.422 36.0958ZM162.728 37.95C162.571 38.0092 162.31 38.0822 161.923 38.1633L162.333 40.1208C162.76 40.0314 163.134 39.934 163.431 39.8227L162.728 37.95ZM161.901 38.168C161.595 38.2392 161.162 38.2841 160.58 38.2841V40.2841C161.247 40.2841 161.846 40.2343 162.354 40.1161L161.901 38.168ZM160.58 38.2841C159.781 38.2841 158.992 38.1133 158.204 37.7607L157.387 39.5859C158.418 40.0477 159.484 40.2841 160.58 40.2841V38.2841ZM158.208 37.7623C157.475 37.4304 156.863 36.9264 156.364 36.2304L154.738 37.3946C155.433 38.3653 156.317 39.1018 157.383 39.5843L158.208 37.7623ZM156.369 36.2365C155.927 35.6091 155.67 34.7728 155.67 33.6591H153.67C153.67 35.0833 154.001 36.3492 154.734 37.3885L156.369 36.2365ZM155.67 33.6591V11.9545H153.67V33.6591H155.67ZM165.221 13.0341H164.221V14.0341H165.221V13.0341ZM165.221 9.90909V8.90909H164.221V9.90909H165.221ZM187.039 9.90909H188.039V8.90909H187.039V9.90909ZM187.039 13.0341V14.0341H188.039V13.0341H187.039ZM177.891 13.0341V12.0341H176.891V13.0341H177.891ZM177.891 39V40H178.891V39H177.891ZM174.369 39H173.369V40H174.369V39ZM174.369 13.0341H175.369V12.0341H174.369V13.0341ZM166.221 13.0341V9.90909H164.221V13.0341H166.221ZM165.221 10.9091H187.039V8.90909H165.221V10.9091ZM186.039 9.90909V13.0341H188.039V9.90909H186.039ZM187.039 12.0341H177.891V14.0341H187.039V12.0341ZM176.891 13.0341V39H178.891V13.0341H176.891ZM177.891 38H174.369V40H177.891V38ZM175.369 39V13.0341H173.369V39H175.369ZM174.369 12.0341H165.221V14.0341H174.369V12.0341ZM191.709 38.7301L191.283 39.635L191.289 39.6378L191.709 38.7301ZM189.024 36.4432L188.19 36.9942L188.192 36.9979L189.024 36.4432ZM188.768 29.767L189.613 30.3026L189.616 30.298L188.768 29.767ZM193.47 26.9261L193.684 27.903L193.691 27.9014L193.47 26.9261ZM196.496 26.3864L196.368 25.3945L196.366 25.3948L196.496 26.3864ZM199.72 26.0028L199.823 26.9976L199.833 26.9964L199.72 26.0028ZM201.538 25.5341L201.049 24.6619L201.04 24.6672L201.538 25.5341ZM200.97 21.017L200.254 21.7154L200.259 21.7198L200.97 21.017ZM193.754 20.9034L194.365 21.6954L193.754 20.9034ZM191.837 23.1477L191.5 24.0895L192.359 24.3963L192.744 23.5688L191.837 23.1477ZM188.655 22.0114L187.736 21.6174L187.317 22.5953L188.318 22.9531L188.655 22.0114ZM190.928 18.9148L191.543 19.7033L191.544 19.7024L190.928 18.9148ZM194.053 17.3523L194.305 18.32L194.31 18.3185L194.053 17.3523ZM199.82 17.1534L199.635 18.1363L199.647 18.1384L199.82 17.1534ZM202.476 18.1619L201.961 19.0194L201.966 19.0219L202.476 18.1619ZM204.621 20.4773L203.745 20.9595L204.621 20.4773ZM205.473 39V40H206.473V39H205.473ZM202.121 39H201.121V40H202.121V39ZM202.121 36.0455H203.121V35.0455H202.121V36.0455ZM201.95 36.0455V35.0455H201.321L201.049 35.6127L201.95 36.0455ZM200.814 37.5653L201.527 38.2662L200.814 37.5653ZM198.697 38.9432L198.302 38.0245L198.697 38.9432ZM199.337 35.7188L198.843 34.8488L198.84 34.8511L199.337 35.7188ZM201.411 33.7017L200.543 33.2034L200.539 33.211L201.411 33.7017ZM202.121 28.0341H203.121V25.272L201.353 27.3939L202.121 28.0341ZM201.183 28.5028L201.453 29.4659L201.465 29.4622L201.183 28.5028ZM199.536 28.858L199.688 29.8464L199.7 29.8443L199.536 28.858ZM197.732 29.1136L197.846 30.1072L197.86 30.1054L197.732 29.1136ZM196.325 29.2841L196.455 30.2757L196.456 30.2755L196.325 29.2841ZM193.882 29.8381L194.195 30.788L194.202 30.7856L193.882 29.8381ZM192.064 30.9602L191.33 30.2814L191.329 30.2819L192.064 30.9602ZM192.675 35.6193L192.105 36.4416L192.116 36.4486L192.675 35.6193ZM195.473 38.5114C194.219 38.5114 193.109 38.2758 192.128 37.8224L191.289 39.6378C192.562 40.2261 193.962 40.5114 195.473 40.5114V38.5114ZM192.135 37.8253C191.165 37.3691 190.414 36.7247 189.856 35.8885L188.192 36.9979C188.96 38.1503 189.999 39.0305 191.283 39.6349L192.135 37.8253ZM189.859 35.8921C189.322 35.0796 189.03 34.0674 189.03 32.8068H187.03C187.03 34.3871 187.401 35.7992 188.19 36.9942L189.859 35.8921ZM189.03 32.8068C189.03 31.6804 189.252 30.8711 189.613 30.3026L187.924 29.2315C187.3 30.216 187.03 31.4332 187.03 32.8068H189.03ZM189.616 30.298C190.016 29.66 190.545 29.164 191.218 28.8003L190.268 27.0406C189.293 27.5671 188.506 28.3022 187.921 29.2361L189.616 30.298ZM191.218 28.8003C191.953 28.4033 192.773 28.1025 193.684 27.903L193.256 25.9493C192.179 26.1854 191.18 26.5475 190.268 27.0406L191.218 28.8003ZM193.691 27.9014C194.665 27.6809 195.643 27.5065 196.625 27.3779L196.366 25.3948C195.322 25.5314 194.283 25.7168 193.249 25.9508L193.691 27.9014ZM196.623 27.3782C197.945 27.2082 199.011 27.0816 199.823 26.9975L199.617 25.0081C198.782 25.0946 197.698 25.2236 196.368 25.3945L196.623 27.3782ZM199.833 26.9964C200.7 26.8979 201.475 26.7242 202.037 26.401L201.04 24.6672C200.844 24.7796 200.407 24.9184 199.607 25.0092L199.833 26.9964ZM202.028 26.4062C202.803 25.9711 203.121 25.2083 203.121 24.3977H201.121C201.121 24.5504 201.093 24.6151 201.085 24.6306C201.081 24.6381 201.079 24.6406 201.078 24.642C201.076 24.6437 201.068 24.6511 201.049 24.6619L202.028 26.4062ZM203.121 24.3977V24.2841H201.121V24.3977H203.121ZM203.121 24.2841C203.121 22.6976 202.682 21.327 201.682 20.3143L200.259 21.7198C200.792 22.2601 201.121 23.0676 201.121 24.2841H203.121ZM201.686 20.3187C200.673 19.28 199.216 18.8523 197.518 18.8523V20.8523C198.908 20.8523 199.753 21.2011 200.254 21.7154L201.686 20.3187ZM197.518 18.8523C195.783 18.8523 194.285 19.2316 193.144 20.1114L194.365 21.6954C195.042 21.1737 196.054 20.8523 197.518 20.8523V18.8523ZM193.144 20.1114C192.145 20.881 191.384 21.7476 190.93 22.7266L192.744 23.5688C193.028 22.957 193.545 22.3274 194.365 21.6954L193.144 20.1114ZM192.173 22.206L188.991 21.0696L188.318 22.9531L191.5 24.0895L192.173 22.206ZM189.574 22.4053C190.089 21.2035 190.753 20.3192 191.543 19.7033L190.313 18.1263C189.208 18.9876 188.357 20.1677 187.736 21.6174L189.574 22.4053ZM191.544 19.7024C192.397 19.0349 193.316 18.5776 194.305 18.32L193.8 16.3846C192.536 16.7141 191.371 17.2984 190.311 18.1271L191.544 19.7024ZM194.31 18.3185C195.368 18.0363 196.399 17.8977 197.405 17.8977V15.8977C196.213 15.8977 195.009 16.0622 193.795 16.386L194.31 18.3185ZM197.405 17.8977C198.028 17.8977 198.769 17.9738 199.635 18.1363L200.004 16.1705C199.052 15.9921 198.183 15.8977 197.405 15.8977V17.8977ZM199.647 18.1384C200.437 18.2768 201.207 18.567 201.961 19.0194L202.99 17.3044C202.04 16.7342 201.039 16.3519 199.992 16.1684L199.647 18.1384ZM201.966 19.0219C202.649 19.4273 203.247 20.0559 203.745 20.9595L205.497 19.995C204.858 18.8343 204.026 17.9193 202.986 17.3019L201.966 19.0219ZM203.745 20.9595C204.202 21.7906 204.473 22.9869 204.473 24.625H206.473C206.473 22.7972 206.176 21.2283 205.497 19.995L203.745 20.9595ZM204.473 24.625V39H206.473V24.625H204.473ZM205.473 38H202.121V40H205.473V38ZM203.121 39V36.0455H201.121V39H203.121ZM202.121 35.0455H201.95V37.0455H202.121V35.0455ZM201.049 35.6127C200.885 35.9539 200.585 36.3717 200.101 36.8645L201.527 38.2662C202.104 37.6795 202.561 37.084 202.852 36.4782L201.049 35.6127ZM200.101 36.8645C199.682 37.2906 199.094 37.6839 198.302 38.0245L199.093 39.8618C200.062 39.4449 200.885 38.9196 201.527 38.2662L200.101 36.8645ZM198.302 38.0245C197.58 38.3353 196.648 38.5114 195.473 38.5114V40.5114C196.836 40.5114 198.054 40.3086 199.093 39.8618L198.302 38.0245ZM195.984 37.5C197.439 37.5 198.738 37.2141 199.834 36.5864L198.84 34.8511C198.117 35.2651 197.181 35.5 195.984 35.5V37.5ZM199.83 36.5886C200.888 35.9889 201.718 35.1927 202.282 34.1924L200.539 33.211C200.175 33.8585 199.623 34.4069 198.843 34.8489L199.83 36.5886ZM202.278 34.2C202.834 33.2317 203.121 32.1943 203.121 31.1023H201.121C201.121 31.8284 200.934 32.524 200.544 33.2034L202.278 34.2ZM203.121 31.1023V28.0341H201.121V31.1023H203.121ZM201.353 27.3939C201.406 27.3298 201.429 27.3367 201.333 27.3847C201.247 27.4276 201.108 27.4825 200.901 27.5435L201.465 29.4622C201.741 29.3811 202 29.2869 202.227 29.1735C202.444 29.0653 202.693 28.9088 202.889 28.6743L201.353 27.3939ZM200.914 27.5399C200.483 27.6605 199.97 27.7717 199.371 27.8716L199.7 29.8443C200.351 29.7359 200.937 29.6104 201.453 29.4658L200.914 27.5399ZM199.383 27.8696C198.776 27.9631 198.182 28.0472 197.604 28.1219L197.86 30.1054C198.455 30.0286 199.064 29.9422 199.688 29.8463L199.383 27.8696ZM197.618 28.1202C197.037 28.1867 196.562 28.2443 196.195 28.2926L196.456 30.2755C196.808 30.2292 197.271 30.1731 197.846 30.1071L197.618 28.1202ZM196.196 28.2925C195.266 28.4138 194.388 28.6121 193.562 28.8906L194.202 30.7856C194.892 30.5527 195.642 30.3817 196.455 30.2757L196.196 28.2925ZM193.569 28.8882C192.685 29.1793 191.925 29.6369 191.33 30.2814L192.798 31.6391C193.13 31.2797 193.583 30.9892 194.195 30.7879L193.569 28.8882ZM191.329 30.2819C190.661 31.0053 190.382 31.9445 190.382 32.9773H192.382C192.382 32.3055 192.557 31.9 192.799 31.6385L191.329 30.2819ZM190.382 32.9773C190.382 34.4275 190.941 35.6351 192.105 36.4415L193.244 34.7971C192.685 34.4104 192.382 33.8566 192.382 32.9773H190.382ZM192.116 36.4486C193.192 37.1737 194.504 37.5 195.984 37.5V35.5C194.794 35.5 193.9 35.2392 193.234 34.7901L192.116 36.4486ZM214.944 9.90909H215.944V8.90909H214.944V9.90909ZM214.944 39V40H215.944V39H214.944ZM211.592 39H210.592V40H211.592V39ZM211.592 9.90909V8.90909H210.592V9.90909H211.592ZM213.944 9.90909V39H215.944V9.90909H213.944ZM214.944 38H211.592V40H214.944V38ZM212.592 39V9.90909H210.592V39H212.592ZM211.592 10.9091H214.944V8.90909H211.592V10.9091ZM224.209 31.0455L223.209 31.0592L223.24 33.3065L224.888 31.779L224.209 31.0455ZM224.152 26.8977V25.8977H223.138L223.152 26.9114L224.152 26.8977ZM224.834 26.8977V27.8977H225.253L225.547 27.5985L224.834 26.8977ZM234.379 17.1818V16.1818H233.96L233.666 16.481L234.379 17.1818ZM238.527 17.1818L239.238 17.885L240.922 16.1818H238.527V17.1818ZM228.357 27.4659V28.4659H228.774L229.068 28.1691L228.357 27.4659ZM228.072 27.4659V26.4659H227.68L227.393 26.7323L228.072 27.4659ZM221.084 39H220.084V40H221.084V39ZM221.084 9.90909V8.90909H220.084V9.90909H221.084ZM224.436 9.90909H225.436V8.90909H224.436V9.90909ZM224.436 39V40H225.436V39H224.436ZM234.947 39L234.163 39.6196L234.463 40H234.947V39ZM226.425 28.2045L225.726 27.489L225.082 28.1177L225.64 28.8242L226.425 28.2045ZM228.811 25.875L229.595 25.254L228.906 24.3847L228.113 25.1594L228.811 25.875ZM239.209 39V40H241.277L239.993 38.379L239.209 39ZM225.209 31.0318L225.152 26.884L223.152 26.9114L223.209 31.0592L225.209 31.0318ZM224.152 27.8977H224.834V25.8977H224.152V27.8977ZM225.547 27.5985L235.093 17.8826L233.666 16.481L224.12 26.1969L225.547 27.5985ZM234.379 18.1818H238.527V16.1818H234.379V18.1818ZM237.816 16.4786L227.646 26.7627L229.068 28.1691L239.238 17.885L237.816 16.4786ZM228.357 26.4659H228.072V28.4659H228.357V26.4659ZM227.393 26.7323L223.529 30.3119L224.888 31.779L228.752 28.1995L227.393 26.7323ZM222.084 39V9.90909H220.084V39H222.084ZM221.084 10.9091H224.436V8.90909H221.084V10.9091ZM223.436 9.90909V39H225.436V9.90909H223.436ZM224.436 38H221.084V40H224.436V38ZM235.732 38.3804L227.21 27.5849L225.64 28.8242L234.163 39.6196L235.732 38.3804ZM227.123 28.9201L229.51 26.5906L228.113 25.1594L225.726 27.489L227.123 28.9201ZM228.027 26.496L238.425 39.621L239.993 38.379L229.595 25.254L228.027 26.496ZM239.209 38H234.947V40H239.209V38Z" fill="white"/>
<path fill-rule="  " clip-rule="evenodd" d="M15.392 5.904L12.493 15.711L12.4475 15.885C6.86725 16.704 3.25 18.018 3.25 19.5C3.25 21.984 13.4355 24 26 24C38.5645 24 48.75 21.984 48.75 19.5C48.75 18.018 45.1328 16.704 39.5525 15.885C39.5392 15.8266 39.524 15.7686 39.507 15.711L36.608 5.901C36.1335 4.302 34.3395 3.354 32.5812 3.699C30.5857 4.089 28.015 4.5 26 4.5C23.985 4.5 21.4142 4.092 19.4187 3.699C17.6605 3.354 15.8665 4.299 15.392 5.904ZM15.4408 17.505C15.4513 17.4069 15.4827 17.3116 15.5332 17.2247C15.5837 17.1378 15.6523 17.0609 15.735 16.9985C15.8177 16.9361 15.913 16.8893 16.0153 16.8609C16.1176 16.8325 16.225 16.8231 16.3313 16.833C19.2563 17.109 22.5387 17.262 26 17.262C29.2287 17.269 32.4557 17.1258 35.6688 16.833C35.8834 16.8131 36.0978 16.8727 36.2648 16.9988C36.4318 17.1248 36.5377 17.3069 36.5592 17.505C36.5808 17.7031 36.5162 17.901 36.3797 18.0552C36.2432 18.2093 36.0459 18.3071 35.8312 18.327C32.8477 18.606 29.5133 18.762 26 18.762C22.4867 18.762 19.1522 18.606 16.1687 18.327C16.0624 18.3172 15.9593 18.2882 15.8651 18.2416C15.7709 18.195 15.6877 18.1317 15.6201 18.0554C15.5524 17.979 15.5018 17.8911 15.471 17.7967C15.4403 17.7022 15.43 17.6031 15.4408 17.505ZM11.375 30H17.875C18.306 30 18.7193 30.158 19.024 30.4393C19.3288 30.7206 19.5 31.1022 19.5 31.5V34.5C19.5 35.6935 18.9864 36.8381 18.0721 37.682C17.1579 38.5259 15.9179 39 14.625 39C13.3321 39 12.0921 38.5259 11.1779 37.682C10.2636 36.8381 9.75 35.6935 9.75 34.5V31.5C9.75 31.1022 9.92121 30.7206 10.226 30.4393C10.5307 30.158 10.944 30 11.375 30ZM6.5 31.5C6.5 30.975 6.5975 30.468 6.77625 30H6.5C6.06902 30 5.6557 29.842 5.35095 29.5607C5.0462 29.2794 4.875 28.8978 4.875 28.5C4.875 28.1022 5.0462 27.7206 5.35095 27.4393C5.6557 27.158 6.06902 27 6.5 27H17.875C19.062 27.0001 20.2082 27.4 21.0985 28.1247C21.9889 28.8493 22.5622 29.8489 22.711 30.936C24.8558 30.338 27.1442 30.338 29.289 30.936C29.4378 29.8489 30.0111 28.8493 30.9015 28.1247C31.7918 27.4 32.938 27.0001 34.125 27H45.5C45.931 27 46.3443 27.158 46.649 27.4393C46.9538 27.7206 47.125 28.1022 47.125 28.5C47.125 28.8978 46.9538 29.2794 46.649 29.5607C46.3443 29.842 45.931 30 45.5 30H45.2238C45.4025 30.468 45.5 30.975 45.5 31.5V34.5C45.5 36.4891 44.644 38.3968 43.1202 39.8033C41.5965 41.2098 39.5299 42 37.375 42C35.2201 42 33.1535 41.2098 31.6298 39.8033C30.106 38.3968 29.25 36.4891 29.25 34.5V34.08L28.5675 33.87C26.9008 33.3576 25.0992 33.3576 23.4325 33.87L22.75 34.08V34.5C22.75 36.4891 21.894 38.3968 20.3702 39.8033C18.8465 41.2098 16.7799 42 14.625 42C12.4701 42 10.4035 41.2098 8.87976 39.8033C7.35602 38.3968 6.5 36.4891 6.5 34.5V31.5ZM34.125 30H40.625C41.056 30 41.4693 30.158 41.774 30.4393C42.0788 30.7206 42.25 31.1022 42.25 31.5V34.5C42.25 35.6935 41.7364 36.8381 40.8221 37.682C39.9079 38.5259 38.6679 39 37.375 39C36.0821 39 34.8421 38.5259 33.9279 37.682C33.0136 36.8381 32.5 35.6935 32.5 34.5V31.5C32.5 31.1022 32.6712 30.7206 32.976 30.4393C33.2807 30.158 33.694 30 34.125 30Z" fill="white"/>
</svg>
